<svg width="2756" height="1960" viewBox="0 0 2756 1960" fill="none" xmlns="http://www.w3.org/2000/svg">
<g clip-path="url(#clip0_2054_146)">
<rect width="2756" height="1959.82" fill="#F4E9D3"/>
<path d="M2251.22 -1451.76C2463.18 -1344.68 2064.39 -315.68 1694.82 214.084C820.101 1467.95 -741.545 896.948 -836.77 466.288C-963.857 172.805 460.41 -593.052 1137.01 -886.038C1813.61 -1179.03 1804.54 -1863.68 2251.22 -1451.76ZM1314.13 -213.728C1326.33 -185.551 1370.61 -186.647 1435.57 -214.777C1500.53 -242.906 1561.57 -287.416 1549.37 -315.593C1537.17 -343.77 1474.62 -343.809 1409.66 -315.679C1344.7 -287.55 1301.93 -241.905 1314.13 -213.728Z" fill="#C3E6E2"/>
<path d="M3533.18 735.114C3083.76 575.728 2438.75 920.072 2046.52 1348.09C875.604 2625.86 -850.723 1949.3 -584.693 1031.59C-1101.44 2054.56 809.576 1348.09 1798.1 830.627C2310.87 591.352 3076.52 280.894 3533.18 735.114Z" fill="#C4E7E3"/>
<ellipse cx="3226.82" cy="1995.23" rx="893.786" ry="867.949" fill="#C5E8E4"/>
</g>
<defs>
<clipPath id="clip0_2054_146">
<rect width="2756" height="1959.82" fill="white"/>
</clipPath>
</defs>
</svg>
